<svg width="16" height="16" viewBox="0 0 16 16" fill="none" xmlns="http://www.w3.org/2000/svg">
	<path d="M11.233 0H4.767A4.77 4.77 0 0 0 0 4.767v6.466A4.77 4.77 0 0 0 4.767 16h6.466A4.77 4.77 0 0 0 16 11.233V4.767A4.77 4.77 0 0 0 11.233 0m3.158 11.233a3.16 3.16 0 0 1-3.158 3.157H4.767a3.157 3.157 0 0 1-3.157-3.157V4.767a3.156 3.156 0 0 1 3.157-3.158h6.466a3.16 3.16 0 0 1 3.157 3.158z" fill="currentColor"/>
	<path d="M8 3.863A4.14 4.14 0 0 0 3.863 8 4.14 4.14 0 0 0 8 12.137 4.14 4.14 0 0 0 12.137 8 4.14 4.14 0 0 0 8 3.863m0 6.664a2.527 2.527 0 1 1 0-5.055 2.527 2.527 0 0 1 0 5.055m4.146-7.624a.991.991 0 1 1-.992.992c0-.547.37-.992.992-.992" fill="currentColor"/>
</svg>